<svg width="38" height="38" viewBox="0 0 38 38" fill="none" xmlns="http://www.w3.org/2000/svg">
<path d="M22.048 3.96447C22.6687 3.96442 23.2787 4.12657 23.8175 4.43484C24.3563 4.74311 24.8052 5.18681 25.1197 5.72197L26.4085 7.91806H29.6876C31.0521 7.91806 32.3607 8.45999 33.3257 9.42468C34.2907 10.3894 34.833 11.6978 34.8334 13.0623V28.104C34.8334 28.7797 34.7003 29.4489 34.4417 30.0732C34.1831 30.6975 33.8041 31.2648 33.3262 31.7426C32.8484 32.2205 32.2811 32.5995 31.6568 32.8581C31.0325 33.1167 30.3633 33.2498 29.6876 33.2498H8.31258C6.94782 33.2498 5.63896 32.7077 4.67393 31.7426C3.7089 30.7776 3.16675 29.4687 3.16675 28.104V13.0623C3.16675 11.6975 3.7089 10.3887 4.67393 9.42365C5.63896 8.45862 6.94782 7.91647 8.31258 7.91647H11.6059L12.9913 5.66181C13.3099 5.14282 13.7561 4.71415 14.2875 4.41673C14.8189 4.1193 15.4176 3.96305 16.0266 3.96289H22.048V3.96447ZM22.048 6.33947H16.0266C15.8533 6.33962 15.6822 6.37767 15.5252 6.45098C15.3682 6.52428 15.2291 6.63106 15.1178 6.76381L15.0148 6.90631L13.2842 9.72464C13.1781 9.89773 13.0294 10.0407 12.8523 10.14C12.6751 10.2392 12.4755 10.2914 12.2725 10.2915H8.31417C7.95016 10.2913 7.58968 10.3628 7.25333 10.5019C6.91697 10.6411 6.61133 10.8452 6.35387 11.1025C6.0964 11.3598 5.89216 11.6653 5.75282 12.0016C5.61347 12.3379 5.54175 12.6983 5.54175 13.0623V28.104C5.54175 29.6335 6.78308 30.8748 8.31258 30.8748H29.6876C30.4225 30.8748 31.1272 30.5829 31.6469 30.0632C32.1665 29.5436 32.4584 28.8388 32.4584 28.104V13.0623C32.4584 12.3274 32.1665 11.6227 31.6469 11.103C31.1272 10.5834 30.4225 10.2915 29.6876 10.2915H25.7292C25.5222 10.2916 25.3188 10.2376 25.1391 10.1348C24.9594 10.0321 24.8097 9.88411 24.7048 9.70564L23.0708 6.92372C22.9661 6.74549 22.8166 6.59769 22.6372 6.49494C22.4578 6.39219 22.2547 6.33806 22.048 6.33789V6.33947ZM19.0001 12.6665C20.8898 12.6665 22.702 13.4171 24.0382 14.7533C25.3744 16.0895 26.1251 17.9018 26.1251 19.7915C26.1251 21.6811 25.3744 23.4934 24.0382 24.8296C22.702 26.1658 20.8898 26.9165 19.0001 26.9165C17.1104 26.9165 15.2981 26.1658 13.9619 24.8296C12.6258 23.4934 11.8751 21.6811 11.8751 19.7915C11.8751 17.9018 12.6258 16.0895 13.9619 14.7533C15.2981 13.4171 17.1104 12.6665 19.0001 12.6665ZM19.0001 15.0415C18.3763 15.0415 17.7586 15.1643 17.1823 15.403C16.606 15.6418 16.0824 15.9916 15.6413 16.4327C15.2002 16.8738 14.8504 17.3974 14.6117 17.9737C14.3729 18.55 14.2501 19.1677 14.2501 19.7915C14.2501 20.4153 14.3729 21.0329 14.6117 21.6092C14.8504 22.1855 15.2002 22.7092 15.6413 23.1502C16.0824 23.5913 16.606 23.9412 17.1823 24.1799C17.7586 24.4186 18.3763 24.5415 19.0001 24.5415C20.2599 24.5415 21.468 24.041 22.3588 23.1502C23.2496 22.2594 23.7501 21.0513 23.7501 19.7915C23.7501 18.5317 23.2496 17.3235 22.3588 16.4327C21.468 15.5419 20.2599 15.0415 19.0001 15.0415Z" fill="#333333"/>
</svg>
