<svg width="28" height="32" viewBox="0 0 28 32" fill="none" xmlns="http://www.w3.org/2000/svg">
<path d="M24.9635 3.06377C21.0998 -0.799902 14.808 -0.799902 10.9485 3.06377L0.243398 13.7606C0.173671 13.8304 0.136757 13.9247 0.136757 14.0231C0.136757 14.1216 0.173671 14.2159 0.243398 14.2856L1.75687 15.7991C1.82605 15.868 1.9197 15.9067 2.01732 15.9067C2.11495 15.9067 2.20859 15.868 2.27777 15.7991L12.9829 5.10225C14.3118 3.77334 16.0795 3.04326 17.958 3.04326C19.8366 3.04326 21.6043 3.77334 22.9291 5.10225C24.258 6.43115 24.9881 8.19893 24.9881 10.0733C24.9881 11.9519 24.258 13.7155 22.9291 15.0444L12.019 25.9505L10.2512 27.7183C8.59828 29.3712 5.91176 29.3712 4.25883 27.7183C3.45902 26.9185 3.02016 25.8562 3.02016 24.7241C3.02016 23.5921 3.45902 22.5298 4.25883 21.73L15.0829 10.9101C15.3577 10.6394 15.7186 10.4876 16.1041 10.4876H16.1082C16.4938 10.4876 16.8506 10.6394 17.1213 10.9101C17.3961 11.1849 17.5438 11.5458 17.5438 11.9313C17.5438 12.3128 17.392 12.6737 17.1213 12.9444L8.27426 21.7833C8.20453 21.853 8.16762 21.9474 8.16762 22.0458C8.16762 22.1442 8.20453 22.2386 8.27426 22.3083L9.78773 23.8218C9.85691 23.8907 9.95056 23.9293 10.0482 23.9293C10.1458 23.9293 10.2395 23.8907 10.3086 23.8218L19.1516 14.9788C19.9678 14.1626 20.4149 13.0798 20.4149 11.9272C20.4149 10.7747 19.9637 9.68779 19.1516 8.87568C17.4659 7.18994 14.726 7.19404 13.0403 8.87568L11.9903 9.92978L2.22035 19.6956C1.55725 20.3548 1.03163 21.1391 0.67396 22.003C0.316291 22.8669 0.133693 23.7932 0.136757 24.7282C0.136757 26.6272 0.87914 28.4114 2.22035 29.7526C3.61078 31.139 5.43187 31.8321 7.25297 31.8321C9.07406 31.8321 10.8952 31.139 12.2815 29.7526L24.9635 17.0788C26.8297 15.2085 27.8633 12.7188 27.8633 10.0733C27.8674 7.42373 26.8338 4.93408 24.9635 3.06377Z" fill="#333333"/>
</svg>
