<svg width="24" height="24" viewBox="0 0 24 24" fill="none" xmlns="http://www.w3.org/2000/svg">
<path fill-rule="evenodd" clip-rule="evenodd" d="M17.297 6.57178C16.887 6.57178 16.547 6.23178 16.547 5.82178V4.59778C15.773 4.57178 14.864 4.57178 13.797 4.57178H11.797C10.729 4.57178 9.821 4.57178 9.047 4.59778V5.82178C9.047 6.23178 8.707 6.57178 8.297 6.57178C7.887 6.57178 7.547 6.23178 7.547 5.82178V4.70578C6.602 4.82878 5.953 5.06578 5.497 5.52178C4.895 6.12378 4.675 7.06178 4.594 8.57178H21C20.919 7.06178 20.698 6.12378 20.097 5.52178C19.641 5.06578 18.992 4.82878 18.047 4.70578V5.82178C18.047 6.23178 17.707 6.57178 17.297 6.57178ZM21.041 10.0718C21.0463 10.6004 21.0483 11.1838 21.047 11.8218V12.8218C21.047 13.2318 21.387 13.5718 21.797 13.5718C22.207 13.5718 22.547 13.2318 22.547 12.8218V11.8218C22.547 7.84178 22.547 5.85178 21.157 4.46178C20.385 3.68978 19.427 3.34678 18.047 3.19378V2.32178C18.047 1.91178 17.707 1.57178 17.297 1.57178C16.887 1.57178 16.547 1.91178 16.547 2.32178V3.09678C15.751 3.07178 14.842 3.07178 13.797 3.07178H11.797C10.751 3.07178 9.843 3.07178 9.047 3.09678V2.32178C9.047 1.91178 8.707 1.57178 8.297 1.57178C7.887 1.57178 7.547 1.91178 7.547 2.32178V3.19378C6.167 3.34678 5.209 3.68978 4.437 4.46178C3.047 5.85178 3.047 7.85178 3.047 11.8218V13.8218C3.047 17.8018 3.047 19.7918 4.437 21.1818C5.827 22.5718 7.817 22.5718 11.797 22.5718C12.207 22.5718 12.547 22.2318 12.547 21.8218C12.547 21.4118 12.207 21.0718 11.797 21.0718C8.237 21.0718 6.447 21.0718 5.497 20.1218C4.547 19.1718 4.547 17.3818 4.547 13.8218V11.8218C4.54633 11.1844 4.548 10.6011 4.552 10.0718H21.041ZM17.797 23.0718C15.177 23.0718 13.047 20.9418 13.047 18.3218C13.047 15.7018 15.177 13.5718 17.797 13.5718C20.417 13.5718 22.547 15.7018 22.547 18.3218C22.547 20.9418 20.417 23.0718 17.797 23.0718ZM17.797 15.0718C16.007 15.0718 14.547 16.5318 14.547 18.3218C14.547 20.1118 16.007 21.5718 17.797 21.5718C19.587 21.5718 21.047 20.1118 21.047 18.3218C21.047 16.5318 19.587 15.0718 17.797 15.0718ZM18.267 19.8518C18.417 20.0018 18.607 20.0718 18.797 20.0718C18.987 20.0718 19.177 20.0018 19.327 19.8518C19.617 19.5618 19.617 19.0818 19.327 18.7918L18.547 18.0118V16.3218C18.547 15.9118 18.207 15.5718 17.797 15.5718C17.387 15.5718 17.047 15.9118 17.047 16.3218V18.3218C17.047 18.5218 17.127 18.7118 17.267 18.8518L18.267 19.8518Z" fill="black" fill-opacity="0.3"/>
</svg>
