<svg width="24" height="24" viewBox="0 0 24 24" fill="none" xmlns="http://www.w3.org/2000/svg">
<path fill-rule="evenodd" clip-rule="evenodd" d="M11.95 2.5H12.05C12.95 2.5 13.7 2.5 14.29 2.58C14.92 2.66 15.48 2.85 15.94 3.31C16.4 3.76 16.58 4.33 16.67 4.96C16.73 5.39 16.74 5.91 16.75 6.51C17.36 6.52 17.89 6.54 18.36 6.59C19.25 6.68 19.99 6.87 20.64 7.3C21.16 7.65 21.6 8.09 21.95 8.61C22.38 9.26 22.57 10 22.66 10.89C22.75 11.75 22.75 12.84 22.75 14.21V14.29C22.75 15.66 22.75 16.75 22.66 17.61C22.57 18.5 22.38 19.24 21.95 19.89C21.6 20.41 21.16 20.85 20.64 21.2C19.99 21.63 19.25 21.82 18.36 21.91C17.49 22 16.41 22 15.04 22H8.96C7.59 22 6.51 22 5.64 21.91C4.75 21.82 4.01 21.63 3.36 21.2C2.84 20.85 2.4 20.41 2.05 19.89C1.62 19.24 1.43 18.5 1.34 17.61C1.25 16.75 1.25 15.66 1.25 14.29V14.21C1.25 12.84 1.25 11.75 1.34 10.89C1.43 10 1.62 9.26 2.05 8.61C2.4 8.09 2.84 7.65 3.36 7.3C4.01 6.87 4.75 6.68 5.64 6.59C6.11 6.54 6.64 6.52 7.25 6.51C7.25 5.91 7.27 5.39 7.33 4.96C7.41 4.33 7.6 3.76 8.06 3.31C8.52 2.85 9.08 2.66 9.71 2.58C10.3 2.5 11.05 2.5 11.95 2.5ZM15.18 5.16C15.23 5.5 15.24 5.93 15.24 6.5H8.74C8.74 5.93 8.76 5.5 8.8 5.16C8.86 4.69 8.97 4.5 9.1 4.37C9.23 4.24 9.43 4.13 9.89 4.07C10.37 4 11.02 4 11.98 4C12.94 4 13.59 4 14.07 4.07C14.53 4.13 14.73 4.24 14.86 4.37C14.99 4.5 15.1 4.69 15.16 5.16H15.18ZM5.79 8.08C5.02 8.16 4.56 8.31 4.19 8.55C3.84 8.78 3.53 9.09 3.29 9.44C3.05 9.81 2.9 10.27 2.82 11.04C2.74 11.82 2.74 12.83 2.74 14.25C2.74 15.67 2.74 16.68 2.82 17.46C2.9 18.23 3.05 18.69 3.29 19.06C3.53 19.41 3.83 19.72 4.19 19.95C4.55 20.19 5.02 20.34 5.79 20.42C6.57 20.5 7.58 20.5 9 20.5H15C16.42 20.5 17.43 20.5 18.21 20.42C18.98 20.34 19.44 20.19 19.81 19.95C20.16 19.72 20.47 19.41 20.71 19.06C20.95 18.69 21.1 18.23 21.18 17.46C21.26 16.68 21.26 15.67 21.26 14.25C21.26 12.83 21.26 11.82 21.18 11.04C21.1 10.27 20.95 9.81 20.71 9.44C20.47 9.09 20.17 8.78 19.81 8.55C19.45 8.31 18.98 8.16 18.21 8.08C17.43 8 16.42 8 15 8H9C7.58 8 6.57 8 5.79 8.08ZM6.22 10.53C6.12546 10.5007 6.02605 10.4904 5.92752 10.4997C5.82898 10.5091 5.73327 10.5378 5.64589 10.5843C5.55851 10.6307 5.48119 10.6941 5.41839 10.7706C5.35559 10.8471 5.30856 10.9352 5.28 11.03C5.16 11.42 5.38 11.84 5.77 11.97L6.42 12.17C7.97 12.65 9.6 12.92 11.24 12.99V14.25C11.24 14.66 11.58 15 11.99 15C12.4 15 12.74 14.66 12.74 14.25V12.99C14.38 12.92 16.01 12.65 17.56 12.17L18.21 11.97C18.61 11.84 18.83 11.42 18.7 11.03C18.6714 10.9352 18.6244 10.8471 18.5616 10.7706C18.4988 10.6941 18.4215 10.6307 18.3341 10.5843C18.2467 10.5378 18.151 10.5091 18.0525 10.4997C17.9539 10.4904 17.8545 10.5007 17.76 10.53L17.11 10.74C13.7681 11.7509 10.2019 11.7509 6.86 10.74L6.21 10.53H6.22Z" fill="black" fill-opacity="0.3"/>
</svg>
