<svg width="42" height="42" viewBox="0 0 42 42" fill="none" xmlns="http://www.w3.org/2000/svg">
<path d="M31.9635 8.06377C28.0998 4.2001 21.808 4.2001 17.9484 8.06377L7.24334 18.7606C7.17361 18.8304 7.1367 18.9247 7.1367 19.0231C7.1367 19.1216 7.17361 19.2159 7.24334 19.2856L8.75681 20.7991C8.82599 20.868 8.91964 20.9067 9.01726 20.9067C9.11488 20.9067 9.20853 20.868 9.27771 20.7991L19.9828 10.1022C21.3117 8.77334 23.0795 8.04326 24.958 8.04326C26.8365 8.04326 28.6043 8.77334 29.9291 10.1022C31.258 11.4312 31.9881 13.1989 31.9881 15.0733C31.9881 16.9519 31.258 18.7155 29.9291 20.0444L19.0189 30.9505L17.2511 32.7183C15.5982 34.3712 12.9117 34.3712 11.2588 32.7183C10.459 31.9185 10.0201 30.8562 10.0201 29.7241C10.0201 28.5921 10.459 27.5298 11.2588 26.73L22.0828 15.9101C22.3576 15.6394 22.7185 15.4876 23.1041 15.4876H23.1082C23.4937 15.4876 23.8506 15.6394 24.1213 15.9101C24.3961 16.1849 24.5437 16.5458 24.5437 16.9313C24.5437 17.3128 24.392 17.6737 24.1213 17.9444L15.2742 26.7833C15.2045 26.853 15.1676 26.9474 15.1676 27.0458C15.1676 27.1442 15.2045 27.2386 15.2742 27.3083L16.7877 28.8218C16.8569 28.8907 16.9505 28.9293 17.0481 28.9293C17.1457 28.9293 17.2394 28.8907 17.3086 28.8218L26.1515 19.9788C26.9677 19.1626 27.4148 18.0798 27.4148 16.9272C27.4148 15.7747 26.9636 14.6878 26.1515 13.8757C24.4658 12.1899 21.726 12.194 20.0402 13.8757L18.9902 14.9298L9.22029 24.6956C8.55719 25.3548 8.03157 26.1391 7.6739 27.003C7.31623 27.8669 7.13363 28.7932 7.1367 29.7282C7.1367 31.6272 7.87908 33.4114 9.22029 34.7526C10.6107 36.139 12.4318 36.8321 14.2529 36.8321C16.074 36.8321 17.8951 36.139 19.2814 34.7526L31.9635 22.0788C33.8297 20.2085 34.8633 17.7188 34.8633 15.0733C34.8674 12.4237 33.8338 9.93408 31.9635 8.06377Z" fill="#333333"/>
</svg>
