<svg width="24" height="24" viewBox="0 0 24 24" fill="none" xmlns="http://www.w3.org/2000/svg">
<path d="M10.1443 6.62759C10.931 4.6666 11.3243 3.6861 12.0006 3.6861C12.6769 3.6861 13.0702 4.6666 13.8568 6.6276L13.8934 6.71891C14.3378 7.82678 14.56 8.38071 15.0129 8.7174C15.4657 9.05409 16.0602 9.10733 17.2491 9.2138L17.464 9.23305C19.4099 9.40732 20.3828 9.49445 20.5909 10.1134C20.7991 10.7324 20.0766 11.3898 18.6316 12.7044L18.1493 13.1432C17.4178 13.8087 17.052 14.1415 16.8815 14.5776C16.8497 14.659 16.8233 14.7423 16.8024 14.8271C16.6903 15.2818 16.7975 15.7645 17.0117 16.73L17.0783 17.0305C17.472 18.8049 17.6688 19.692 17.3252 20.0747C17.1967 20.2177 17.0298 20.3206 16.8444 20.3712C16.3482 20.5066 15.6437 19.9326 14.2348 18.7845C13.3096 18.0306 12.847 17.6537 12.3159 17.5689C12.107 17.5355 11.8941 17.5355 11.6852 17.5689C11.1541 17.6537 10.6915 18.0306 9.76638 18.7845C8.35742 19.9326 7.65295 20.5066 7.15675 20.3712C6.97133 20.3206 6.80442 20.2177 6.676 20.0747C6.33232 19.692 6.52915 18.8049 6.92283 17.0305L6.9895 16.73C7.20371 15.7645 7.31082 15.2818 7.19876 14.8271C7.17786 14.7423 7.15142 14.659 7.11962 14.5776C6.94915 14.1415 6.5834 13.8087 5.85189 13.1432L5.36961 12.7044C3.92456 11.3898 3.20204 10.7324 3.41022 10.1134C3.6184 9.49445 4.59131 9.40732 6.53712 9.23305L6.75206 9.2138C7.94097 9.10733 8.53543 9.05409 8.98828 8.7174C9.44113 8.38071 9.66333 7.82678 10.1077 6.71891L10.1443 6.62759Z" fill="#ECBA0B" stroke="#ECBA0B" stroke-width="0.862829"/>
</svg>
