<svg width="24" height="24" viewBox="0 0 24 24" fill="none" xmlns="http://www.w3.org/2000/svg">
<path d="M20.59 22C20.59 18.13 16.74 15 12 15C7.26003 15 3.41003 18.13 3.41003 22M12 12C13.3261 12 14.5979 11.4732 15.5356 10.5355C16.4733 9.59785 17 8.32608 17 7C17 5.67392 16.4733 4.40215 15.5356 3.46447C14.5979 2.52678 13.3261 2 12 2C10.674 2 9.40218 2.52678 8.4645 3.46447C7.52682 4.40215 7.00003 5.67392 7.00003 7C7.00003 8.32608 7.52682 9.59785 8.4645 10.5355C9.40218 11.4732 10.674 12 12 12Z" stroke="black" stroke-opacity="0.3" stroke-width="2" stroke-linecap="round" stroke-linejoin="round"/>
</svg>
